<?xml version="1.0" standalone="no"?>
<!DOCTYPE svg PUBLIC "-//W3C//DTD SVG 20010904//EN"
 "http://www.w3.org/TR/2001/REC-SVG-20010904/DTD/svg10.dtd">
<svg version="1.0" xmlns="http://www.w3.org/2000/svg"
 width="1563.000000pt" height="1563.000000pt" viewBox="0 0 1563.000000 1563.000000"
 preserveAspectRatio="xMidYMid meet">

<g transform="translate(0.000000,1563.000000) scale(0.100000,-0.100000)"
fill="#000000" stroke="none">
<path d="M7790 14589 c-429 -29 -921 -116 -1365 -244 -629 -180 -1229 -456
-1770 -812 -427 -282 -745 -543 -1095 -899 -410 -418 -750 -866 -1030 -1359
-83 -145 -223 -415 -218 -420 2 -2 30 42 62 98 162 283 355 556 610 862 126
151 505 530 656 656 565 472 1133 803 1780 1039 667 243 1285 352 2010 353
454 1 760 -31 1235 -129 413 -84 922 -264 1334 -469 285 -143 428 -225 661
-380 209 -140 267 -170 375 -192 136 -27 299 6 426 88 112 72 216 220 248 353
17 69 15 220 -3 289 -35 128 -116 248 -218 320 -193 136 -719 373 -1162 523
-507 172 -1095 287 -1644 324 -177 12 -709 11 -892 -1z"/>
<path d="M7275 13303 c-1035 -31 -2018 -360 -2878 -961 -1314 -921 -2139
-2405 -2229 -4014 -13 -232 0 -644 27 -888 100 -903 429 -1755 964 -2500 286
-399 651 -777 1050 -1088 991 -772 2240 -1162 3499 -1092 989 55 1884 357
2705 913 81 55 149 103 152 107 2 3 -69 -30 -159 -75 -453 -227 -938 -381
-1426 -454 -273 -40 -456 -53 -750 -54 -525 -1 -984 71 -1475 230 -942 305
-1775 900 -2375 1698 -513 683 -833 1485 -935 2345 -8 74 -21 251 -27 393 -73
1604 700 3166 2037 4114 366 260 825 493 1250 635 346 115 674 186 1060 228
161 18 660 24 835 11 634 -49 1240 -216 1801 -497 82 -41 149 -72 149 -70 0 8
-190 139 -315 217 -167 105 -254 153 -451 252 -655 328 -1338 506 -2089 547
-104 5 -221 9 -260 8 -38 -1 -110 -3 -160 -5z"/>
<path d="M12600 12929 c0 -5 5 -7 10 -4 6 3 10 8 10 11 0 2 -4 4 -10 4 -5 0
-10 -5 -10 -11z"/>
<path d="M12379 12903 c-13 -16 -12 -17 4 -4 9 7 17 15 17 17 0 8 -8 3 -21
-13z"/>
<path d="M12720 12812 c0 -5 7 -9 15 -9 8 0 12 4 9 9 -3 4 -9 8 -15 8 -5 0 -9
-4 -9 -8z"/>
<path d="M8983 12664 c-66 -32 -171 -144 -135 -144 5 0 17 10 28 21 25 28 82
64 116 72 25 7 30 0 111 -131 46 -75 94 -154 107 -175 l22 -38 -44 -43 c-92
-87 -157 -213 -158 -300 l0 -49 43 40 c77 71 187 112 344 129 60 6 62 7 51 28
-6 11 -15 24 -21 27 -12 8 -129 -23 -211 -56 -32 -13 -55 -20 -50 -15 17 17
153 68 226 86 40 9 77 20 82 25 10 9 -24 69 -39 69 -5 0 -4 4 3 9 10 6 -6 39
-69 137 -72 113 -175 271 -185 283 -2 2 -22 -1 -45 -8 -30 -9 -39 -16 -35 -27
3 -9 6 -18 6 -20 0 -2 9 -4 20 -4 14 0 30 -15 48 -46 15 -25 60 -98 100 -162
39 -64 71 -124 69 -132 -1 -8 -11 -17 -22 -20 -35 -9 -139 -70 -172 -100 -39
-35 -103 -117 -103 -132 0 -6 33 20 73 58 72 69 204 145 273 159 l29 5 -25
-12 c-14 -7 -25 -22 -25 -32 0 -15 -15 -24 -65 -41 -89 -30 -140 -57 -204
-109 -30 -25 -57 -42 -60 -39 -3 4 -6 0 -6 -7 0 -7 -3 -11 -6 -7 -11 10 55
121 99 167 23 24 69 63 102 88 33 24 61 45 63 47 8 7 -264 425 -276 425 -4 -1
-30 -12 -59 -26z"/>
<path d="M6991 12388 c-10 -24 -58 -144 -106 -268 -48 -124 -90 -231 -92 -238
-4 -10 14 -12 83 -10 l88 3 41 103 c22 57 45 103 50 101 6 -1 37 -48 71 -103
l60 -101 112 -3 c62 -1 112 0 112 3 0 3 -40 65 -90 139 -49 74 -90 136 -90
139 0 2 75 60 167 128 92 68 174 129 182 136 13 10 -4 12 -85 13 l-102 0 -116
-85 c-63 -46 -128 -92 -143 -102 -32 -21 -32 -23 16 105 l30 82 -85 0 -85 0
-18 -42z"/>
<path d="M7674 12378 c-10 -29 -20 -56 -22 -60 -2 -4 34 -8 81 -8 l84 0 22 51
c11 29 21 56 21 60 0 5 -37 9 -83 9 l-83 0 -20 -52z"/>
<path d="M7922 12378 c-11 -29 -23 -61 -27 -70 -6 -16 0 -18 59 -18 36 0 66
-4 66 -10 0 -5 -10 -33 -21 -62 -53 -132 -129 -333 -129 -341 0 -4 32 -7 72
-5 l72 3 81 205 80 205 68 3 68 3 20 45 c10 25 22 57 25 70 l6 24 -210 0 -211
0 -19 -52z"/>
<path d="M8401 12379 c-34 -84 -44 -79 160 -79 l180 0 25 55 c13 31 24 60 24
65 0 6 -71 10 -184 10 l-183 0 -22 -51z"/>
<path d="M7635 12233 c-16 -3 -35 -41 -88 -176 -37 -95 -67 -176 -67 -180 0
-4 39 -6 86 -5 l85 3 69 175 c49 125 65 177 57 182 -12 8 -106 9 -142 1z"/>
<path d="M13290 12221 c0 -4 11 -18 25 -31 14 -13 25 -20 25 -15 0 4 -11 18
-25 31 -14 13 -25 20 -25 15z"/>
<path d="M8272 12060 c-34 -89 -62 -168 -62 -176 0 -12 31 -14 180 -14 l181 0
18 43 c40 94 47 87 -78 87 -61 0 -111 2 -111 4 0 2 7 20 15 39 l15 36 111 3
112 3 25 58 c14 32 22 61 18 65 -4 4 -88 8 -185 10 l-178 4 -61 -162z"/>
<path d="M13460 12011 c0 -6 4 -13 10 -16 6 -3 7 1 4 9 -7 18 -14 21 -14 7z"/>
<path d="M11800 11901 c0 -5 7 -11 15 -15 8 -3 15 -1 15 3 0 5 -7 11 -15 15
-8 3 -15 1 -15 -3z"/>
<path d="M13580 11840 c0 -5 5 -10 11 -10 5 0 7 5 4 10 -3 6 -8 10 -11 10 -2
0 -4 -4 -4 -10z"/>
<path d="M6790 11656 c0 -52 3 -66 15 -66 8 0 15 9 15 20 0 11 4 20 9 20 5 0
13 -9 16 -20 3 -11 15 -20 26 -20 23 0 24 4 2 36 -15 24 -15 27 0 54 9 15 17
31 17 34 0 11 -36 -9 -50 -28 -14 -20 -14 -20 -20 4 -3 13 -11 25 -18 28 -9 3
-12 -15 -12 -62z"/>
<path d="M6930 11713 c-39 -14 -54 -78 -24 -107 9 -9 32 -16 55 -16 38 0 39 1
39 35 0 32 -2 35 -30 35 -33 0 -40 -14 -13 -24 15 -6 15 -9 3 -16 -20 -13 -30
-3 -30 30 0 29 19 44 44 34 7 -3 16 1 19 9 8 20 -30 32 -63 20z"/>
<path d="M7010 11710 c0 -5 7 -10 15 -10 8 0 15 5 15 10 0 6 -7 10 -15 10 -8
0 -15 -4 -15 -10z"/>
<path d="M7072 11708 c-21 -21 -14 -58 14 -68 31 -12 24 -29 -10 -23 -19 4
-26 12 -28 36 -2 21 -9 33 -20 35 -15 3 -18 -4 -18 -46 l0 -50 52 0 c29 -1 58
4 65 10 21 17 15 48 -12 60 -30 13 -34 33 -5 25 24 -6 38 12 19 24 -20 12 -43
11 -57 -3z"/>
<path d="M7156 11713 c-3 -3 -6 -33 -6 -65 l0 -58 40 0 c29 0 40 4 40 15 0 9
-9 15 -25 15 -23 0 -25 4 -25 44 0 43 -10 63 -24 49z"/>
<path d="M7286 11713 c-3 -4 -6 -33 -6 -65 0 -51 2 -58 20 -58 18 0 20 7 20
59 0 41 -4 60 -14 64 -8 3 -17 3 -20 0z"/>
<path d="M7343 11713 c-20 -7 -18 -123 2 -123 11 0 15 12 16 43 l0 42 22 -42
c15 -32 27 -43 44 -43 21 0 23 4 23 60 0 47 -3 60 -15 60 -11 0 -15 -11 -15
-37 l-1 -38 -19 36 c-20 38 -36 49 -57 42z"/>
<path d="M7475 11704 c-8 -9 -15 -19 -15 -23 0 -12 23 -38 45 -49 18 -10 17
-11 -12 -12 -23 0 -33 -5 -33 -15 0 -20 63 -20 80 0 15 19 4 52 -21 60 -32 11
-21 23 21 23 l40 1 0 -50 c0 -37 4 -49 15 -49 11 0 15 12 15 45 0 31 5 47 17
54 26 14 16 18 -64 24 -57 5 -76 3 -88 -9z"/>
<path d="M7654 11711 c-2 -2 -4 -31 -4 -63 0 -51 2 -58 20 -58 17 0 20 7 20
50 0 38 4 50 15 50 11 0 15 -12 15 -50 0 -43 3 -50 20 -50 17 0 20 7 20 50 0
64 25 70 33 9 6 -46 19 -59 58 -59 37 0 49 18 49 77 0 40 -4 53 -15 53 -11 0
-15 -12 -15 -50 0 -27 -4 -50 -10 -50 -5 0 -13 0 -17 0 -5 0 -10 21 -13 47
l-5 48 -83 0 c-46 0 -86 -2 -88 -4z"/>
<path d="M8015 11712 c-3 -3 -5 -32 -5 -64 l0 -58 41 0 c43 0 52 22 11 28 -28
4 -29 22 -2 22 11 0 20 7 20 15 0 8 -9 15 -21 15 -11 0 -17 5 -14 10 3 6 15
10 26 10 34 0 15 25 -19 26 -17 1 -34 -1 -37 -4z"/>
<path d="M8150 11700 c-41 -41 -13 -110 44 -110 42 0 56 15 56 61 0 61 -59 90
-100 49z m66 -34 c7 -31 -1 -46 -27 -46 -14 0 -19 7 -19 28 0 48 35 61 46 18z"/>
<path d="M8393 11713 c-18 -6 -16 -23 2 -23 11 0 15 -12 15 -50 0 -38 4 -50
15 -50 10 0 15 10 15 34 0 44 9 66 26 66 10 0 14 -14 14 -50 l0 -50 40 0 c42
0 54 14 20 25 -23 7 -27 25 -5 25 8 0 15 7 15 15 0 8 -7 15 -15 15 -8 0 -15 5
-15 10 0 6 9 10 20 10 18 0 30 19 13 21 -53 4 -151 5 -160 2z"/>
<path d="M8585 11695 c-29 -28 -31 -51 -9 -83 19 -27 84 -32 84 -6 0 9 -8 14
-17 13 -39 -3 -44 1 -41 34 2 25 8 32 25 32 29 1 41 14 23 25 -24 15 -39 12
-65 -15z"/>
<path d="M8676 11713 c-3 -4 -6 -33 -6 -65 0 -51 2 -58 20 -58 15 0 20 7 20
25 0 19 5 25 20 25 12 0 20 -6 19 -12 -3 -27 2 -38 16 -38 12 0 15 13 15 60 0
47 -3 60 -15 60 -8 0 -15 -9 -15 -20 0 -13 -7 -20 -20 -20 -13 0 -20 7 -20 19
0 19 -23 35 -34 24z"/>
<path d="M8889 11693 c-1 -15 -1 -31 0 -35 3 -21 -18 -4 -29 22 -9 21 -19 30
-36 30 -23 0 -24 -3 -24 -60 0 -48 3 -60 16 -60 13 0 15 8 12 40 -2 22 -2 40
-1 40 1 0 12 -18 23 -40 15 -30 26 -40 45 -40 23 0 24 3 22 62 -1 39 -7 63
-14 66 -8 2 -13 -7 -14 -25z"/>
<path d="M8952 11704 c-25 -17 -31 -81 -10 -102 20 -20 86 -15 98 7 16 31 12
69 -10 91 -24 24 -48 25 -78 4z m56 -52 c3 -26 0 -32 -16 -32 -23 0 -35 24
-26 52 9 31 39 17 42 -20z"/>
<path d="M9169 11702 c-25 -21 -30 -71 -9 -96 21 -26 77 -20 96 9 l17 26 11
-23 c9 -18 21 -24 54 -26 l42 -3 0 35 c0 32 -3 36 -25 36 -16 0 -25 -6 -25
-15 0 -8 5 -15 10 -15 6 0 10 -5 10 -10 0 -7 -6 -7 -20 0 -26 14 -27 57 0 65
11 3 24 4 29 0 5 -3 13 0 17 6 8 13 -13 29 -39 29 -10 0 -29 -11 -43 -25 -29
-29 -34 -30 -34 -10 0 15 -30 35 -53 35 -8 0 -25 -8 -38 -18z m59 -50 c3 -30
1 -33 -20 -30 -23 3 -34 27 -24 54 11 28 41 11 44 -24z"/>
<path d="M9397 11714 c-3 -4 3 -24 13 -45 11 -21 20 -47 20 -59 0 -11 7 -20
15 -20 10 0 15 10 15 28 0 15 9 41 20 57 24 36 25 44 4 41 -9 -1 -22 -13 -28
-25 l-12 -22 -12 25 c-11 26 -23 32 -35 20z"/>
<path d="M7910 11700 c0 -5 7 -10 15 -10 11 0 15 -12 15 -50 0 -38 4 -50 15
-50 11 0 15 12 15 50 0 38 4 50 15 50 8 0 15 5 15 10 0 6 -20 10 -45 10 -25 0
-45 -4 -45 -10z"/>
<path d="M8268 11693 c-7 -37 4 -103 18 -103 8 0 14 10 14 24 0 16 5 23 16 22
9 0 19 5 21 12 3 7 -4 12 -16 12 -12 0 -21 6 -21 15 0 8 9 15 20 15 11 0 20 5
20 10 0 6 -15 10 -34 10 -24 0 -36 -5 -38 -17z"/>
<path d="M9060 11650 l0 -60 40 0 c29 0 40 4 40 15 0 10 -7 15 -17 13 -15 -2
-19 6 -21 45 -3 39 -6 47 -23 47 -17 0 -19 -7 -19 -60z"/>
<path d="M12016 11647 c3 -10 9 -15 12 -12 3 3 0 11 -7 18 -10 9 -11 8 -5 -6z"/>
<path d="M12105 11541 c-3 -5 -2 -12 3 -15 5 -3 9 1 9 9 0 17 -3 19 -12 6z"/>
<path d="M7680 11460 c0 -27 5 -50 10 -50 6 0 10 23 10 50 0 28 -4 50 -10 50
-5 0 -10 -22 -10 -50z"/>
<path d="M13800 11506 c0 -2 7 -7 16 -10 8 -3 12 -2 9 4 -6 10 -25 14 -25 6z"/>
<path d="M7984 11490 c-13 -13 -5 -80 10 -80 8 0 11 13 8 38 -5 52 -6 54 -18
42z"/>
<path d="M8393 11485 c-7 -14 -8 -27 0 -45 10 -25 10 -25 14 -2 3 12 3 32 1
45 -3 21 -4 22 -15 2z"/>
<path d="M7496 11464 c-20 -19 -20 -28 -2 -43 11 -9 15 -5 18 24 5 40 5 40
-16 19z"/>
<path d="M7589 11467 c7 -9 11 -26 8 -38 -4 -16 -3 -18 9 -8 20 17 17 37 -8
50 -21 11 -22 11 -9 -4z"/>
<path d="M7874 11459 c0 -10 6 -19 13 -19 7 0 13 4 13 9 0 5 -6 13 -13 19 -10
8 -13 6 -13 -9z"/>
<path d="M7919 11470 c-7 -5 -10 -12 -6 -17 5 -4 12 -1 16 6 6 9 9 5 9 -13 0
-14 -5 -26 -10 -26 -5 0 -6 5 -3 10 8 12 -5 13 -23 1 -11 -7 -10 -10 3 -15 9
-3 27 -6 39 -6 19 0 22 4 18 29 -4 32 -21 44 -43 31z"/>
<path d="M8600 11446 c0 -20 5 -36 10 -36 6 0 10 13 10 29 0 17 -4 33 -10 36
-6 4 -10 -8 -10 -29z"/>
<path d="M7525 11460 c-3 -5 -1 -10 4 -10 6 0 11 5 11 10 0 6 -2 10 -4 10 -3
0 -8 -4 -11 -10z"/>
<path d="M7558 11464 c-12 -11 -10 -42 3 -49 14 -10 16 -4 10 28 -3 16 -9 25
-13 21z"/>
<path d="M7710 11463 c1 -15 39 -58 45 -51 8 8 -24 58 -36 58 -5 0 -9 -3 -9
-7z"/>
<path d="M7780 11440 c0 -16 5 -30 10 -30 6 0 10 12 10 26 0 19 4 25 15 20 8
-3 15 -1 15 4 0 6 -11 10 -25 10 -21 0 -25 -5 -25 -30z"/>
<path d="M7845 11458 c-4 -10 -4 -26 0 -35 8 -17 8 -17 12 0 3 9 3 25 0 35 -4
16 -4 16 -12 0z"/>
<path d="M8016 11453 c-4 -9 -1 -23 7 -30 12 -12 14 -10 15 16 1 33 -12 41
-22 14z"/>
<path d="M8053 11455 c0 -8 4 -15 9 -15 4 0 8 7 8 15 0 8 -4 15 -8 15 -5 0 -9
-7 -9 -15z"/>
<path d="M8106 11439 c12 -23 18 -28 24 -19 10 16 -9 50 -28 50 -9 0 -9 -8 4
-31z"/>
<path d="M8156 11453 c-4 -9 0 -23 7 -31 12 -11 14 -9 13 17 -1 34 -10 40 -20
14z"/>
<path d="M8198 11440 c-3 -19 -1 -29 6 -27 15 5 20 37 8 49 -6 6 -11 -1 -14
-22z"/>
<path d="M8232 11443 c2 -23 9 -29 34 -31 29 -3 30 -1 26 27 -2 17 -8 31 -13
31 -5 0 -8 -3 -8 -7 1 -5 1 -16 0 -25 -2 -28 -21 -21 -21 7 0 14 -5 25 -11 25
-6 0 -9 -12 -7 -27z"/>
<path d="M8310 11440 c0 -16 5 -30 10 -30 6 0 10 12 10 26 0 19 4 25 15 20 8
-3 15 -1 15 4 0 6 -11 10 -25 10 -21 0 -25 -5 -25 -30z"/>
<path d="M8487 11456 c-3 -8 1 -22 8 -33 13 -17 14 -16 15 15 0 33 -13 43 -23
18z"/>
<path d="M8530 11460 c0 -5 5 -10 11 -10 5 0 7 5 4 10 -3 6 -8 10 -11 10 -2 0
-4 -4 -4 -10z"/>
<path d="M8560 11440 c0 -16 5 -30 10 -30 6 0 10 14 10 30 0 17 -4 30 -10 30
-5 0 -10 -13 -10 -30z"/>
<path d="M8640 11440 c0 -16 5 -30 10 -30 6 0 10 14 10 30 0 17 -4 30 -10 30
-5 0 -10 -13 -10 -30z"/>
<path d="M8672 11443 c2 -22 9 -29 31 -31 24 -3 27 0 27 27 0 17 -4 31 -10 31
-5 0 -10 -11 -10 -25 0 -14 -4 -25 -10 -25 -5 0 -10 11 -10 25 0 14 -5 25 -11
25 -6 0 -9 -12 -7 -27z"/>
<path d="M8749 11467 c-7 -14 -5 -57 2 -57 6 0 7 5 4 10 -3 6 0 10 9 10 8 0
17 -6 19 -12 4 -9 6 -8 6 2 1 13 -36 56 -40 47z"/>
<path d="M7223 11443 c37 -2 97 -2 135 0 37 2 6 3 -68 3 -74 0 -105 -1 -67 -3z"/>
<path d="M8447 11431 c-3 -14 -1 -18 9 -14 8 3 14 11 14 19 0 21 -17 17 -23
-5z"/>
<path d="M8923 11443 c37 -2 97 -2 135 0 37 2 6 3 -68 3 -74 0 -105 -1 -67 -3z"/>
<path d="M8090 11369 c0 -5 5 -7 10 -4 6 3 10 8 10 11 0 2 -4 4 -10 4 -5 0
-10 -5 -10 -11z"/>
<path d="M13920 11306 c0 -2 7 -7 16 -10 8 -3 12 -2 9 4 -6 10 -25 14 -25 6z"/>
<path d="M12340 11190 c0 -5 5 -10 10 -10 6 0 10 5 10 10 0 6 -4 10 -10 10 -5
0 -10 -4 -10 -10z"/>
<path d="M12420 11055 c0 -8 4 -15 10 -15 5 0 7 7 4 15 -4 8 -8 15 -10 15 -2
0 -4 -7 -4 -15z"/>
<path d="M12465 10990 c-3 -5 -1 -10 4 -10 6 0 11 5 11 10 0 6 -2 10 -4 10 -3
0 -8 -4 -11 -10z"/>
<path d="M8803 10842 c-155 -55 -229 -205 -176 -357 13 -36 37 -69 85 -117 46
-47 69 -78 73 -101 4 -18 5 -161 3 -317 -3 -255 -5 -289 -22 -320 -10 -19
-140 -158 -290 -307 -216 -218 -276 -273 -297 -273 -20 0 -44 19 -95 72 -118
125 -236 240 -318 313 -142 124 -197 242 -198 420 -2 152 12 193 86 268 92 92
114 172 81 284 -36 122 -141 199 -270 197 -150 -1 -260 -110 -273 -269 -6 -79
19 -139 84 -198 83 -76 87 -90 94 -347 5 -211 6 -227 27 -261 13 -20 160 -172
328 -337 338 -334 351 -350 363 -480 l7 -67 79 -3 c57 -2 82 1 87 10 5 7 9 41
9 74 0 34 7 79 16 100 11 27 115 139 333 359 237 239 324 333 342 370 24 49
24 53 27 385 2 188 7 346 13 360 5 14 32 45 60 69 66 57 99 125 99 205 0 83
-17 131 -67 186 -77 86 -190 118 -290 82z m145 -188 c30 -35 30 -87 -3 -119
-52 -53 -145 -16 -145 57 0 87 91 125 148 62z m-1403 -269 c49 -48 25 -128
-41 -141 -44 -8 -79 9 -94 47 -36 86 70 160 135 94z"/>
<path d="M14206 10747 c3 -10 9 -15 12 -12 3 3 0 11 -7 18 -10 9 -11 8 -5 -6z"/>
<path d="M14260 10640 c0 -5 5 -10 11 -10 5 0 7 5 4 10 -3 6 -8 10 -11 10 -2
0 -4 -4 -4 -10z"/>
<path d="M12826 10297 c3 -10 9 -15 12 -12 3 3 0 11 -7 18 -10 9 -11 8 -5 -6z"/>
<path d="M14400 10259 c0 -5 5 -7 10 -4 6 3 10 8 10 11 0 2 -4 4 -10 4 -5 0
-10 -5 -10 -11z"/>
<path d="M12831 10234 c0 -11 3 -14 6 -6 3 7 2 16 -1 19 -3 4 -6 -2 -5 -13z"/>
<path d="M8097 10156 c-164 -47 -243 -237 -163 -394 101 -199 389 -192 490 10
33 65 35 161 7 224 -59 129 -201 198 -334 160z m156 -194 c52 -52 37 -136 -30
-167 -69 -33 -140 6 -150 83 -14 103 105 158 180 84z"/>
<path d="M12871 10154 c0 -11 3 -14 6 -6 3 7 2 16 -1 19 -3 4 -6 -2 -5 -13z"/>
<path d="M14527 9897 c-3 -8 1 -14 8 -14 7 0 11 6 8 14 -3 7 -6 13 -8 13 -2 0
-5 -6 -8 -13z"/>
<path d="M12980 9860 c-9 -6 -10 -10 -3 -10 6 0 15 5 18 10 8 12 4 12 -15 0z"/>
<path d="M14605 9580 c3 -5 8 -10 11 -10 2 0 4 5 4 10 0 6 -5 10 -11 10 -5 0
-7 -4 -4 -10z"/>
<path d="M6060 9497 c-161 -45 -250 -198 -205 -353 23 -82 107 -165 191 -190
103 -30 183 -5 292 91 35 30 75 58 90 62 15 5 153 8 307 8 273 0 281 -1 325
-23 29 -15 142 -120 313 -290 148 -147 273 -275 278 -285 9 -15 -16 -44 -163
-190 -95 -95 -200 -203 -233 -241 -70 -81 -149 -136 -243 -167 -53 -18 -90
-23 -177 -24 -154 0 -172 5 -251 77 -81 73 -137 100 -213 101 -99 1 -185 -50
-239 -143 -24 -39 -27 -56 -27 -130 0 -96 13 -129 74 -193 72 -77 164 -102
264 -73 43 12 71 31 126 80 43 40 84 69 108 75 21 6 124 11 228 11 178 0 193
2 240 24 30 14 73 48 109 87 33 35 210 221 395 413 185 191 336 355 336 365 0
12 -11 17 -45 19 -25 1 -56 5 -70 8 -15 3 -153 133 -355 334 -181 180 -345
335 -364 345 -48 24 -201 36 -451 34 -118 0 -232 -1 -254 0 -33 1 -48 10 -110
70 -39 38 -85 76 -102 84 -44 23 -122 29 -174 14z m119 -202 c31 -16 41 -33
41 -71 0 -59 -56 -96 -110 -74 -67 28 -69 113 -5 148 27 15 41 15 74 -3z m272
-1434 c33 -33 37 -67 14 -111 -27 -53 -115 -57 -150 -7 -40 56 7 147 75 147
22 0 41 -9 61 -29z"/>
<path d="M9892 9473 c-24 -8 -69 -39 -100 -68 -89 -81 -82 -79 -317 -85 -197
-5 -213 -7 -260 -29 -36 -18 -131 -107 -368 -343 -175 -176 -330 -323 -343
-329 -14 -5 -45 -9 -70 -9 -24 0 -44 -3 -44 -6 0 -3 39 -58 86 -122 111 -150
655 -696 729 -732 69 -33 195 -43 465 -36 273 7 303 2 397 -68 79 -59 115 -76
163 -76 57 0 99 20 143 70 167 184 84 406 -150 402 -66 -2 -102 -20 -179 -91
-88 -82 -92 -83 -423 -72 -240 9 -288 13 -324 29 -29 13 -109 86 -263 243
-122 123 -251 257 -288 297 l-65 73 217 213 c294 288 341 330 404 362 49 26
63 28 204 32 141 4 153 3 195 -18 24 -12 65 -42 92 -67 65 -60 117 -83 196
-83 276 -1 359 380 109 504 -60 30 -137 34 -206 9z m164 -171 c77 -62 39 -177
-58 -177 -53 0 -98 47 -98 101 0 75 99 123 156 76z m252 -1412 c101 -62 63
-206 -57 -218 -45 -4 -52 -2 -86 30 -33 30 -38 41 -39 81 -2 101 97 159 182
107z"/>
<path d="M6742 8776 c-84 -27 -151 -91 -183 -171 -19 -49 -15 -154 8 -206 45
-102 143 -164 258 -163 60 0 79 4 125 30 164 92 196 308 65 439 -71 70 -184
100 -273 71z m166 -212 c31 -36 29 -79 -7 -115 -33 -32 -58 -36 -100 -14 -65
33 -53 131 19 158 26 10 64 -3 88 -29z"/>
<path d="M9480 8771 c-45 -14 -84 -39 -116 -73 -54 -59 -67 -88 -72 -163 -4
-58 0 -80 18 -123 29 -66 102 -134 164 -152 165 -46 346 92 346 264 0 87 -77
193 -170 235 -46 21 -122 26 -170 12z m145 -196 c59 -58 0 -161 -80 -141 -63
16 -85 87 -44 140 28 36 89 37 124 1z"/>
<path d="M13221 8694 c0 -11 3 -14 6 -6 3 7 2 16 -1 19 -3 4 -6 -2 -5 -13z"/>
<path d="M13250 8354 c0 -8 5 -12 10 -9 6 4 8 11 5 16 -9 14 -15 11 -15 -7z"/>
<path d="M8067 8270 c-54 -14 -87 -33 -129 -75 -75 -75 -72 -56 -79 -575 -4
-256 -7 -570 -8 -698 l-1 -233 -142 108 -143 109 0 220 c0 279 -2 274 158 422
60 56 82 123 74 226 -4 40 -12 73 -19 78 -15 10 -373 -348 -389 -389 -5 -13
-9 -116 -9 -229 l0 -205 -22 13 c-14 7 -61 12 -114 13 -84 0 -96 -2 -160 -35
-89 -45 -134 -106 -134 -182 0 -28 7 -64 15 -82 8 -17 291 -309 628 -648 594
-598 614 -617 692 -656 143 -71 161 -75 447 -80 214 -3 271 -1 340 13 283 57
513 262 604 540 26 78 27 89 36 455 5 206 8 452 6 546 -4 162 -5 174 -32 227
-31 65 -69 100 -145 135 -70 32 -166 28 -236 -11 l-46 -26 -57 58 c-95 97
-215 118 -331 57 l-53 -27 -16 23 c-26 39 -78 84 -117 102 -74 35 -156 33
-257 -9 -16 -6 -17 17 -20 307 l-3 313 -29 53 c-30 54 -74 96 -133 125 -40 21
-127 29 -176 17z m151 -137 c14 -11 35 -32 46 -47 21 -27 21 -39 24 -614 2
-525 4 -588 19 -604 19 -22 52 -23 79 -4 17 13 19 31 24 209 5 178 7 198 26
224 53 72 136 93 203 52 79 -48 94 -102 89 -317 -3 -167 1 -182 57 -182 54 0
59 16 65 186 4 133 8 156 25 180 48 63 144 83 205 42 68 -47 74 -64 80 -226 3
-82 10 -155 16 -166 13 -22 67 -27 87 -7 7 7 14 55 17 121 4 89 9 114 26 136
38 52 71 69 132 69 64 0 104 -23 138 -78 18 -31 19 -52 16 -536 -4 -567 -6
-586 -79 -725 -57 -108 -183 -230 -293 -283 -126 -62 -198 -73 -469 -73 -217
0 -234 1 -309 25 -43 14 -105 42 -138 63 -80 52 -1228 1213 -1232 1247 -5 38
13 61 70 89 65 32 135 34 192 6 23 -11 156 -108 296 -215 203 -155 261 -194
286 -195 17 0 36 6 42 13 6 7 13 290 18 777 9 742 10 766 29 792 48 65 154 85
213 41z"/>
<path d="M8113 6476 c15 -12 17 -34 17 -204 0 -171 -2 -192 -17 -201 -13 -8 6
-10 72 -10 72 0 86 3 68 11 -23 11 -23 14 -23 189 0 185 3 209 26 209 8 0 14
5 14 10 0 6 -36 10 -87 10 -75 -1 -85 -3 -70 -14z"/>
<path d="M8480 6480 c0 -5 7 -10 15 -10 13 0 15 -28 15 -195 0 -174 -2 -195
-17 -204 -13 -8 6 -10 72 -10 72 0 86 3 68 11 -20 10 -23 18 -23 78 l0 66 76
11 c89 13 123 34 143 88 13 32 13 43 0 78 -18 52 -50 75 -124 87 -79 13 -225
13 -225 0z m205 -16 c59 -23 59 -195 0 -218 -9 -3 -30 -6 -46 -6 l-29 0 0 115
0 115 29 0 c16 0 37 -3 46 -6z"/>
<path d="M9079 6467 c-46 -31 -58 -79 -34 -132 14 -28 39 -51 101 -91 88 -57
109 -82 100 -119 -21 -82 -136 -72 -181 16 -23 44 -35 35 -35 -26 0 -56 8 -67
29 -41 11 12 18 12 54 -5 106 -48 237 7 237 99 0 52 -26 83 -114 139 -84 53
-96 67 -96 108 0 36 26 65 58 65 28 0 90 -55 98 -87 11 -42 29 -19 32 40 3 59
-5 69 -32 42 -14 -14 -18 -14 -45 0 -46 23 -131 20 -172 -8z"/>
<path d="M8342 6128 c-19 -19 -14 -45 10 -62 19 -13 25 -14 43 -2 25 16 31 42
15 61 -15 18 -52 19 -68 3z"/>
<path d="M8902 6128 c-20 -20 -14 -58 11 -67 42 -17 84 31 57 64 -15 18 -52
19 -68 3z"/>
<path d="M8150 5993 c0 -5 9 -18 20 -28 11 -10 20 -14 20 -8 0 5 -9 18 -20 28
-11 10 -20 14 -20 8z"/>
<path d="M8212 5975 c0 -16 2 -22 5 -12 2 9 2 23 0 30 -3 6 -5 -1 -5 -18z"/>
<path d="M8292 5975 c0 -16 2 -22 5 -12 2 9 2 23 0 30 -3 6 -5 -1 -5 -18z"/>
<path d="M8332 5975 c0 -16 2 -22 5 -12 2 9 2 23 0 30 -3 6 -5 -1 -5 -18z"/>
<path d="M8372 5975 c0 -16 2 -22 5 -12 2 9 2 23 0 30 -3 6 -5 -1 -5 -18z"/>
<path d="M8472 5975 c0 -16 2 -22 5 -12 2 9 2 23 0 30 -3 6 -5 -1 -5 -18z"/>
<path d="M8502 5975 c0 -16 2 -22 5 -12 2 9 2 23 0 30 -3 6 -5 -1 -5 -18z"/>
<path d="M8592 5975 c0 -16 2 -22 5 -12 2 9 2 23 0 30 -3 6 -5 -1 -5 -18z"/>
<path d="M8672 5975 c0 -16 2 -22 5 -12 2 9 2 23 0 30 -3 6 -5 -1 -5 -18z"/>
<path d="M8722 5975 c0 -16 2 -22 5 -12 2 9 2 23 0 30 -3 6 -5 -1 -5 -18z"/>
<path d="M8817 5994 c-11 -11 -9 -44 3 -44 6 0 10 6 10 13 0 8 3 7 10 -3 7
-12 9 -10 7 7 0 12 -4 20 -8 17 -4 -2 -9 1 -11 7 -2 5 -7 7 -11 3z"/>
<path d="M8862 5975 c0 -16 2 -22 5 -12 2 9 2 23 0 30 -3 6 -5 -1 -5 -18z"/>
<path d="M8902 5975 c0 -16 2 -22 5 -12 2 9 2 23 0 30 -3 6 -5 -1 -5 -18z"/>
<path d="M9050 5991 c0 -7 7 -19 15 -27 19 -20 19 -5 0 20 -9 11 -15 14 -15 7z"/>
<path d="M9142 5975 c0 -16 2 -22 5 -12 2 9 2 23 0 30 -3 6 -5 -1 -5 -18z"/>
<path d="M9272 5975 c0 -16 2 -22 5 -12 2 9 2 23 0 30 -3 6 -5 -1 -5 -18z"/>
<path d="M8120 5970 c0 -11 5 -20 10 -20 6 0 10 9 10 20 0 11 -4 20 -10 20 -5
0 -10 -9 -10 -20z"/>
<path d="M8249 5988 c-6 -21 -5 -38 2 -38 5 0 9 9 9 20 0 16 -7 28 -11 18z"/>
<path d="M8411 5974 c0 -11 3 -14 6 -6 3 7 2 16 -1 19 -3 4 -6 -2 -5 -13z"/>
<path d="M8560 5985 c0 -5 5 -17 10 -25 5 -8 10 -10 10 -5 0 6 -5 17 -10 25
-5 8 -10 11 -10 5z"/>
<path d="M8742 5970 c0 -14 2 -19 5 -12 2 6 2 18 0 25 -3 6 -5 1 -5 -13z"/>
<path d="M8760 5976 c0 -8 4 -17 9 -20 5 -4 7 3 4 14 -6 23 -13 26 -13 6z"/>
<path d="M8792 5970 c0 -14 2 -19 5 -12 2 6 2 18 0 25 -3 6 -5 1 -5 -13z"/>
<path d="M8950 5983 c0 -4 5 -15 10 -23 8 -13 10 -13 10 2 0 9 -4 20 -10 23
-5 3 -10 3 -10 -2z"/>
<path d="M8983 5970 c1 -11 5 -20 9 -20 4 0 8 9 8 20 0 11 -4 20 -9 20 -6 0
-9 -9 -8 -20z"/>
<path d="M9092 5970 c0 -14 2 -19 5 -12 2 6 2 18 0 25 -3 6 -5 1 -5 -13z"/>
<path d="M9117 5971 c-4 -17 -3 -21 5 -13 5 5 8 16 6 23 -3 8 -7 3 -11 -10z"/>
<path d="M9180 5983 c0 -4 5 -15 10 -23 8 -13 10 -13 10 2 0 9 -4 20 -10 23
-5 3 -10 3 -10 -2z"/>
<path d="M9227 5970 c-3 -11 -1 -20 4 -20 5 0 9 9 9 20 0 11 -2 20 -4 20 -2 0
-6 -9 -9 -20z"/>
<path d="M9291 5973 c-1 -16 5 -23 17 -23 10 0 13 3 6 8 -6 4 -14 14 -17 22
-4 10 -6 8 -6 -7z"/>
<path d="M9322 5971 c7 -11 16 -17 20 -14 10 5 -10 33 -23 33 -5 0 -4 -9 3
-19z"/>
<path d="M13251 7634 c0 -11 3 -14 6 -6 3 7 2 16 -1 19 -3 4 -6 -2 -5 -13z"/>
<path d="M14767 7441 c-4 -17 -3 -21 5 -13 5 5 8 16 6 23 -3 8 -7 3 -11 -10z"/>
<path d="M14737 7073 c-4 -3 -7 -16 -6 -27 0 -19 1 -19 10 3 10 24 8 36 -4 24z"/>
<path d="M13175 7019 c-4 -6 -5 -12 -2 -15 2 -3 7 2 10 11 7 17 1 20 -8 4z"/>
<path d="M14641 6544 c0 -11 3 -14 6 -6 3 7 2 16 -1 19 -3 4 -6 -2 -5 -13z"/>
<path d="M13031 6354 c0 -11 3 -14 6 -6 3 7 2 16 -1 19 -3 4 -6 -2 -5 -13z"/>
<path d="M14585 6339 c-4 -6 -5 -12 -2 -15 2 -3 7 2 10 11 7 17 1 20 -8 4z"/>
<path d="M12890 5979 c0 -5 5 -7 10 -4 6 3 10 8 10 11 0 2 -4 4 -10 4 -5 0
-10 -5 -10 -11z"/>
<path d="M12657 5426 c-4 -10 -1 -13 8 -9 8 3 12 9 9 14 -7 12 -11 11 -17 -5z"/>
<path d="M14219 5323 c-13 -16 -12 -17 4 -4 9 7 17 15 17 17 0 8 -8 3 -21 -13z"/>
<path d="M5586 5094 c-3 -8 -3 -26 0 -40 6 -22 11 -24 75 -24 l69 0 0 -170 0
-170 40 0 40 0 0 170 0 170 71 0 70 0 -3 38 -3 37 -176 3 c-154 2 -177 0 -183
-14z"/>
<path d="M6037 5103 c-4 -3 -7 -21 -7 -40 l0 -33 160 0 160 0 0 40 0 40 -153
0 c-85 0 -157 -3 -160 -7z"/>
<path d="M6493 5091 c-52 -32 -58 -53 -58 -196 0 -194 11 -205 206 -205 l120
0 -3 38 -3 37 -113 3 c-112 3 -113 3 -123 30 -16 41 -8 210 11 222 8 5 64 10
123 10 l108 0 -3 38 -3 37 -115 3 c-100 2 -119 0 -147 -17z"/>
<path d="M6847 5104 c-4 -4 -7 -99 -7 -211 l0 -204 38 3 37 3 3 83 3 82 89 0
89 0 3 -82 3 -83 38 -3 37 -3 -2 208 -3 208 -35 0 -35 0 -3 -82 -3 -83 -89 0
-89 0 -3 83 -3 82 -30 3 c-17 2 -34 0 -38 -4z"/>
<path d="M7593 5096 c-58 -26 -68 -54 -68 -201 0 -194 11 -205 206 -205 l120
0 -3 38 -3 37 -113 3 c-112 3 -113 3 -123 30 -16 41 -8 210 11 222 8 5 64 10
123 10 l108 0 -3 38 -3 37 -110 2 c-77 2 -120 -2 -142 -11z"/>
<path d="M8013 5103 c-31 -6 -70 -48 -77 -84 -12 -59 -7 -228 8 -263 24 -57
46 -66 174 -66 62 0 122 5 133 10 35 19 52 70 56 170 5 118 -11 185 -50 214
-24 18 -44 21 -125 23 -53 0 -107 -1 -119 -4z m198 -90 c16 -19 22 -185 9
-220 -9 -21 -15 -23 -98 -23 -55 0 -92 4 -100 12 -19 19 -16 212 4 232 23 23
166 23 185 -1z"/>
<path d="M8395 5086 c-13 -19 -15 -55 -13 -207 l3 -184 37 -3 37 -3 3 152 3
152 50 -124 c46 -114 52 -124 82 -133 52 -14 72 7 123 135 l45 113 5 -145 5
-144 38 -3 37 -3 0 195 c0 164 -3 197 -16 210 -16 16 -80 22 -101 8 -6 -4 -32
-61 -59 -127 -26 -66 -50 -123 -54 -128 -3 -4 -28 48 -54 115 -27 68 -56 129
-64 136 -9 6 -33 12 -54 12 -28 0 -41 -6 -53 -24z"/>
<path d="M8946 5094 c-13 -13 -16 -46 -16 -210 l0 -195 38 3 37 3 3 150 3 150
48 -120 c53 -134 76 -158 128 -140 24 9 35 27 78 134 l50 124 3 -152 3 -152
37 3 37 3 3 189 c2 165 0 191 -14 207 -18 20 -78 26 -101 11 -7 -5 -35 -64
-63 -132 -27 -68 -52 -125 -54 -127 -2 -2 -27 55 -56 126 -28 71 -58 132 -67
135 -28 11 -82 6 -97 -10z"/>
<path d="M9484 5097 c-3 -8 -4 -90 -2 -182 l3 -167 33 -29 c31 -28 36 -29 137
-29 114 0 149 10 170 50 15 30 31 280 21 334 -6 33 -10 36 -41 36 -44 0 -44
-3 -48 -190 l-2 -145 -86 -3 c-63 -2 -89 1 -97 11 -7 8 -13 72 -14 168 l-3
154 -33 3 c-21 2 -34 -2 -38 -11z"/>
<path d="M9940 5090 c-19 -19 -20 -31 -18 -208 l3 -187 37 -3 37 -3 3 155 3
156 86 -153 86 -152 51 -3 c43 -3 53 0 62 17 7 13 9 87 8 208 l-3 188 -35 0
-35 0 -5 -154 -5 -153 -69 123 c-97 174 -109 189 -152 189 -21 0 -42 -8 -54
-20z"/>
<path d="M10387 5104 c-4 -4 -7 -99 -7 -211 l0 -204 38 3 37 3 0 205 0 205
-30 3 c-17 2 -34 0 -38 -4z"/>
<path d="M10535 5090 c-3 -11 -3 -29 0 -40 6 -17 15 -20 76 -20 l69 0 0 -170
0 -170 40 0 40 0 0 170 0 170 71 0 70 0 -3 38 -3 37 -177 3 c-170 2 -177 2
-183 -18z"/>
<path d="M10986 5101 c-3 -5 30 -73 74 -151 75 -133 80 -146 80 -202 l0 -59
38 3 37 3 5 70 c5 65 11 80 78 197 40 70 71 132 67 138 -3 5 -21 10 -40 10
-33 0 -36 -4 -91 -105 l-58 -106 -42 78 c-23 43 -49 90 -58 106 -12 21 -22 27
-50 27 -19 0 -37 -4 -40 -9z"/>
<path d="M12409 4983 c-13 -16 -12 -17 4 -4 16 13 21 21 13 21 -2 0 -10 -8
-17 -17z"/>
<path d="M2461 4935 c-1 -29 14 -51 24 -35 4 7 3 15 -2 19 -6 3 -13 13 -16 21
-4 11 -6 9 -6 -5z"/>
<path d="M6046 4925 c-20 -21 -22 -122 -2 -169 24 -58 46 -66 183 -66 l123 0
0 45 0 45 -104 0 c-114 0 -136 9 -136 55 0 24 1 24 118 27 l117 3 0 35 0 35
-142 3 c-118 2 -144 0 -157 -13z"/>
<path d="M2497 4867 c4 -6 8 -14 8 -17 1 -9 37 -80 41 -80 9 0 -3 52 -14 59
-8 5 -13 11 -13 15 3 18 0 24 -15 30 -10 4 -13 2 -7 -7z"/>
<path d="M12304 4818 l-19 -23 23 19 c21 18 27 26 19 26 -2 0 -12 -10 -23 -22z"/>
<path d="M2563 4769 c4 -13 7 -30 7 -37 0 -7 5 -10 12 -6 7 5 8 3 4 -5 -5 -7
0 -21 10 -32 10 -11 19 -27 20 -35 4 -26 13 -29 31 -11 15 15 15 17 0 23 -9 3
-15 10 -12 14 3 5 -3 11 -13 14 -10 3 -18 16 -19 28 -1 12 -9 26 -18 30 -8 5
-13 13 -10 18 3 5 0 12 -6 16 -9 5 -10 0 -6 -17z"/>
<path d="M2652 4631 c-18 -11 -3 -46 42 -100 20 -24 39 -54 42 -67 3 -13 10
-24 15 -24 5 0 9 -5 9 -10 0 -6 11 -22 25 -36 14 -14 28 -36 31 -49 3 -14 10
-25 15 -25 5 0 14 -12 20 -27 8 -22 12 -25 20 -13 8 12 9 11 5 -5 -4 -13 3
-30 19 -49 14 -16 25 -33 25 -38 0 -5 5 -6 10 -3 6 3 10 -1 10 -9 0 -9 9 -25
19 -35 10 -10 22 -29 26 -41 4 -12 9 -19 12 -16 6 6 43 -37 43 -49 0 -4 9 -16
21 -26 11 -9 21 -21 22 -26 1 -4 5 -7 10 -5 4 1 7 -3 7 -8 0 -15 58 -96 95
-134 11 -12 38 -45 60 -73 21 -29 46 -53 54 -53 8 0 12 -3 8 -6 -9 -9 25 -44
36 -37 6 3 7 1 3 -5 -10 -17 100 -126 116 -116 10 6 10 4 0 -8 -11 -14 -8 -17
18 -26 16 -6 30 -17 30 -24 0 -9 -3 -9 -10 2 -6 9 -10 10 -10 3 0 -15 35 -35
44 -26 3 3 6 -3 6 -14 0 -23 23 -46 35 -35 5 4 5 2 2 -4 -8 -15 63 -80 83 -75
8 1 12 0 8 -5 -4 -4 0 -13 10 -21 10 -9 11 -11 2 -7 -13 7 -13 5 -1 -9 7 -9
18 -14 24 -10 5 3 7 1 3 -5 -7 -12 63 -74 76 -66 4 3 8 -1 8 -9 0 -8 8 -21 17
-28 11 -10 14 -10 9 -1 -4 6 -4 12 1 12 4 0 14 -12 21 -27 14 -28 113 -113
132 -113 6 0 9 -4 5 -9 -7 -12 66 -72 78 -64 6 3 7 2 4 -4 -4 -6 14 -25 38
-42 25 -18 45 -31 45 -29 0 3 26 -20 58 -49 31 -29 62 -53 68 -53 7 0 15 -7
18 -16 3 -8 10 -13 15 -10 5 3 16 -5 25 -19 9 -14 23 -25 30 -25 7 0 19 -7 26
-15 7 -9 19 -14 27 -11 7 3 13 1 13 -4 0 -14 34 -46 67 -64 15 -8 41 -26 58
-40 16 -14 32 -21 35 -15 4 5 18 -4 33 -21 15 -16 34 -30 43 -30 8 0 12 -4 9
-10 -3 -5 -1 -10 6 -10 7 0 27 -11 45 -25 18 -14 37 -25 43 -25 6 0 11 -5 11
-12 0 -6 3 -9 6 -5 4 3 13 0 21 -8 8 -8 23 -15 34 -15 11 0 18 -4 15 -9 -5 -7
9 -17 34 -24 3 0 14 -9 24 -19 18 -17 25 -19 42 -17 4 0 10 -4 13 -9 10 -15
71 -43 81 -37 5 3 11 -4 15 -15 3 -11 12 -20 20 -20 7 0 20 -6 27 -12 32 -30
75 -47 86 -36 9 9 15 9 25 -1 10 -10 9 -11 -5 -6 -11 4 -18 2 -18 -4 0 -6 3
-11 8 -12 35 -3 59 -13 77 -29 12 -11 25 -17 28 -13 4 3 7 1 7 -5 0 -7 9 -12
20 -12 11 0 20 -4 20 -8 0 -11 51 -35 58 -28 2 3 16 -4 30 -14 13 -11 31 -20
38 -20 8 0 14 -4 14 -8 0 -9 100 -48 113 -44 4 1 7 -2 7 -6 0 -11 51 -35 58
-27 3 3 13 -2 23 -11 9 -8 23 -17 31 -18 7 -2 31 -11 52 -20 22 -10 55 -20 73
-23 18 -3 30 -9 27 -14 -3 -5 2 -6 10 -3 9 3 16 2 16 -3 0 -6 19 -16 43 -23
23 -8 47 -17 53 -22 7 -5 16 -8 20 -7 9 2 27 -4 69 -21 26 -11 127 -44 140
-46 6 -1 13 -3 18 -4 4 -1 10 -3 15 -5 4 -1 14 -5 22 -8 30 -13 114 -39 138
-43 14 -3 34 -10 44 -15 11 -6 22 -8 25 -5 3 3 15 0 27 -6 11 -7 48 -18 81
-25 33 -7 91 -20 130 -28 38 -9 77 -14 87 -12 9 3 18 1 20 -4 2 -5 12 -11 23
-13 11 -2 39 -9 61 -15 23 -6 50 -8 60 -4 13 5 15 3 9 -7 -6 -10 -1 -12 24 -7
18 4 30 3 27 -1 -2 -4 3 -8 12 -9 18 -1 117 -15 277 -40 55 -9 132 -17 172
-17 39 -1 69 -4 67 -8 -2 -3 19 -8 46 -10 28 -1 50 -1 50 2 0 3 11 6 25 6 14
1 23 -2 20 -6 -10 -16 83 -22 430 -25 334 -2 547 4 670 20 28 4 66 8 85 10
177 14 220 19 220 26 0 5 15 6 33 4 26 -4 28 -4 12 5 -14 7 -4 8 39 4 42 -5
57 -3 52 5 -4 6 -2 9 6 6 7 -3 63 4 123 15 61 11 127 22 148 25 21 2 43 8 50
12 13 8 42 14 75 15 12 0 22 5 22 10 0 6 7 8 15 4 8 -3 53 6 100 19 47 14 93
25 103 25 9 0 34 9 55 20 21 11 42 18 48 15 5 -4 24 -2 42 4 17 6 34 10 37 10
3 -1 22 6 44 15 21 9 44 16 52 16 7 0 25 5 41 12 15 6 33 10 40 9 6 -1 14 3
18 9 3 5 15 10 27 10 11 0 32 9 48 20 15 11 30 17 33 14 8 -9 79 16 101 35 13
11 17 12 11 2 -6 -11 -5 -12 6 -5 8 5 16 9 19 9 24 1 88 30 83 38 -4 6 0 8 9
4 9 -3 19 -3 22 1 4 3 16 7 29 9 12 2 26 9 32 15 7 8 6 9 -4 3 -10 -6 -12 -4
-7 4 5 7 14 10 22 7 20 -8 95 24 87 37 -3 6 -1 7 5 3 14 -8 82 22 82 36 0 5 5
6 10 3 11 -7 144 50 173 73 9 8 17 12 17 8 0 -4 21 4 46 18 26 14 52 26 59 26
6 0 20 9 30 20 10 11 20 18 24 16 13 -8 52 14 45 26 -5 8 -2 9 9 5 10 -4 20 0
26 11 5 9 12 16 15 15 3 -1 27 7 52 19 30 13 42 23 35 28 -9 5 -8 9 4 13 9 4
13 3 10 -3 -9 -15 8 -12 32 5 38 27 108 98 105 108 -1 4 2 6 8 2 5 -3 13 2 17
12 4 10 12 23 19 28 21 18 73 127 69 146 -2 10 0 19 4 19 14 0 19 38 7 51 -8
9 -8 10 3 4 10 -6 12 -2 6 14 -4 13 -2 21 6 21 14 0 7 188 -7 199 -5 3 -10 20
-11 36 -3 38 -33 106 -44 99 -5 -3 -6 2 -3 10 3 9 1 16 -5 16 -6 0 -10 3 -10
8 3 19 -2 33 -11 27 -5 -3 -10 0 -10 8 0 15 -85 105 -136 144 -16 13 -37 23
-47 23 -10 0 -16 4 -13 9 7 11 -49 32 -60 23 -4 -4 -4 -1 0 5 4 8 1 13 -8 14
-22 2 -25 3 -69 18 -55 19 -268 9 -322 -14 -22 -10 -56 -25 -77 -34 -20 -9
-34 -20 -30 -25 3 -5 -2 -7 -10 -4 -8 4 -26 -4 -40 -17 -14 -13 -28 -21 -32
-18 -3 3 -8 -2 -12 -11 -3 -9 -10 -13 -15 -10 -5 3 -12 -2 -15 -10 -3 -9 -11
-16 -17 -16 -5 0 -33 -18 -62 -40 -29 -22 -72 -51 -96 -64 -24 -13 -43 -29
-41 -36 1 -6 -2 -9 -8 -5 -5 3 -10 1 -10 -5 0 -6 -6 -10 -12 -9 -21 3 -48 -12
-41 -24 4 -6 1 -7 -6 -2 -8 4 -24 -1 -40 -12 -14 -11 -36 -23 -49 -27 -12 -4
-22 -11 -22 -15 0 -4 -20 -15 -45 -25 -25 -11 -42 -23 -38 -29 4 -6 0 -8 -10
-4 -10 4 -20 0 -26 -11 -6 -9 -11 -14 -11 -9 0 12 -60 -22 -60 -34 0 -6 -7 -9
-15 -5 -8 3 -28 -6 -45 -20 -16 -14 -34 -23 -39 -20 -5 4 -17 -2 -27 -11 -10
-10 -18 -17 -18 -15 -1 2 -18 -4 -38 -12 -21 -9 -42 -16 -48 -16 -6 0 -8 -4
-5 -10 3 -5 1 -11 -4 -11 -21 -3 -53 -15 -131 -50 -67 -31 -81 -37 -122 -49
-21 -6 -38 -16 -38 -22 0 -6 -3 -9 -6 -5 -9 9 -64 -13 -61 -25 1 -6 -4 -13
-12 -16 -8 -3 -11 0 -7 7 8 12 -6 15 -18 4 -3 -4 -16 -8 -28 -10 -12 -2 -25
-7 -28 -11 -5 -7 -10 -9 -77 -26 -24 -6 -43 -14 -43 -19 0 -4 -4 -6 -9 -2 -5
3 -15 0 -23 -7 -7 -7 -29 -14 -48 -16 -19 -1 -37 -6 -40 -10 -3 -4 -14 -8 -25
-10 -11 -2 -27 -6 -35 -9 -8 -4 -17 -7 -20 -8 -3 -1 -12 -4 -20 -7 -53 -19
-96 -31 -124 -35 -17 -3 -39 -9 -48 -14 -10 -5 -18 -7 -18 -3 0 3 -6 1 -13 -5
-8 -6 -16 -9 -19 -6 -2 3 -29 -2 -58 -11 -30 -9 -62 -18 -72 -20 -44 -10 -66
-15 -118 -25 -30 -6 -64 -12 -75 -14 -11 -1 -20 -4 -20 -5 0 -3 -14 -5 -110
-19 -38 -6 -79 -11 -90 -11 -17 0 -18 -2 -5 -11 11 -8 4 -9 -27 -5 -25 4 -44
2 -48 -5 -4 -6 -14 -8 -22 -5 -7 3 -64 -1 -126 -9 -168 -23 -344 -30 -742 -29
-343 0 -524 6 -543 18 -5 3 -63 11 -128 17 -144 14 -145 14 -164 22 -15 6
-113 19 -162 21 -14 0 -24 4 -22 8 3 4 -4 7 -13 6 -10 0 -29 3 -43 6 -36 10
-124 26 -160 31 -17 2 -37 8 -43 14 -7 5 -32 11 -57 13 -25 2 -47 5 -50 8 -11
13 -115 40 -152 40 -22 0 -37 4 -33 9 3 6 -11 13 -32 18 -47 9 -51 10 -60 13
-5 2 -12 4 -18 4 -5 1 -20 8 -33 14 -12 7 -36 14 -52 15 -17 1 -30 5 -30 9 0
3 -8 5 -17 3 -10 -1 -30 6 -45 17 -16 11 -28 16 -28 12 0 -3 -8 0 -17 7 -11
10 -14 10 -9 2 4 -7 -19 0 -50 17 -39 20 -62 26 -68 20 -15 -15 -20 -13 -55
21 -28 26 -35 29 -49 17 -11 -9 -14 -10 -8 -1 5 9 -3 17 -21 24 -15 6 -41 18
-57 27 -23 12 -27 12 -21 1 5 -8 -1 -5 -13 5 -12 11 -22 16 -22 11 0 -4 -7 -1
-16 6 -25 20 -87 48 -96 43 -5 -3 -8 0 -8 5 0 6 -3 10 -7 10 -23 -4 -43 2 -38
11 3 6 -2 10 -12 10 -11 0 -34 11 -53 25 -18 13 -37 22 -41 19 -5 -3 -9 0 -9
7 0 7 -10 9 -24 7 -17 -4 -23 -1 -19 9 5 11 -8 18 -29 14 -5 0 -8 4 -8 10 0 7
-10 9 -24 7 -17 -3 -23 -1 -19 8 5 14 -31 29 -47 19 -5 -3 -8 0 -5 7 6 15 -42
41 -58 31 -6 -3 -7 -1 -4 4 4 6 -5 16 -21 22 -15 6 -48 24 -74 41 -27 16 -54
28 -60 26 -7 -1 -10 -1 -5 1 12 7 -3 23 -22 23 -10 0 -28 11 -41 25 -12 13
-27 22 -31 19 -5 -3 -9 0 -9 6 0 7 -7 9 -16 6 -8 -3 -12 -2 -9 4 7 11 -29 32
-40 22 -5 -4 -6 -2 -3 3 4 6 -44 44 -105 85 -62 41 -121 82 -131 92 -11 10
-27 17 -35 16 -9 -2 -16 4 -16 12 -1 8 -6 14 -13 12 -7 -1 -12 2 -12 7 0 5
-27 26 -60 47 -33 21 -68 49 -76 63 -13 19 -18 21 -25 10 -7 -11 -9 -11 -9 -1
0 13 -49 67 -60 67 -3 0 -19 14 -36 30 -61 61 -104 95 -116 93 -7 -2 -12 3
-13 9 0 15 -94 103 -109 103 -6 0 -16 10 -21 23 -6 12 -17 21 -24 19 -7 -1
-10 2 -6 7 5 9 -33 37 -46 34 -4 -1 -6 5 -5 15 0 9 -4 16 -11 15 -6 -1 -17 4
-23 12 -7 8 -9 15 -5 15 4 0 2 7 -5 15 -7 8 -17 12 -23 8 -6 -3 -7 -1 -3 5 4
7 -3 17 -18 23 -14 7 -28 21 -32 31 -3 11 -12 17 -19 14 -8 -3 -16 5 -19 20
-4 14 -14 24 -24 24 -12 0 -14 2 -4 8 9 7 8 13 -8 27 -17 15 -22 16 -37 4 -16
-13 -17 -12 -4 4 11 14 11 20 1 32 -11 13 -15 13 -21 3 -7 -11 -9 -11 -9 0 0
7 -6 10 -12 7 -7 -3 -6 -1 2 6 17 12 17 12 -87 124 -24 25 -43 51 -43 56 0 6
-10 8 -22 4 -18 -5 -20 -4 -8 4 9 7 11 14 5 19 -6 4 -26 29 -45 56 -19 26 -47
61 -62 77 -16 15 -28 33 -28 39 0 5 -5 10 -12 10 -6 0 -9 3 -5 6 3 3 -9 22
-26 41 -18 19 -37 43 -42 53 -6 12 -15 16 -23 11z m668 -891 c0 -5 -2 -10 -4
-10 -3 0 -8 5 -11 10 -3 6 -1 10 4 10 6 0 11 -4 11 -10z m785 -540 c3 -5 2
-10 -4 -10 -5 0 -13 5 -16 10 -3 6 -2 10 4 10 5 0 13 -4 16 -10z m400 -248
c-3 -3 -11 0 -18 7 -9 10 -8 11 6 5 10 -3 15 -9 12 -12z m520 -263 c11 -17 -1
-21 -15 -4 -8 9 -8 15 -2 15 6 0 14 -5 17 -11z m1532 -985 c-3 -3 -12 -4 -19
-1 -8 3 -5 6 6 6 11 1 17 -2 13 -5z m150 -50 c-3 -3 -12 -4 -19 -1 -8 3 -5 6
6 6 11 1 17 -2 13 -5z m2700 -80 c-3 -3 -12 -4 -19 -1 -8 3 -5 6 6 6 11 1 17
-2 13 -5z"/>
<path d="M12127 4567 c-3 -8 3 -14 16 -15 12 0 17 2 12 6 -6 4 -13 11 -16 15
-4 4 -9 2 -12 -6z"/>
<path d="M11955 4349 c-4 -6 -5 -12 -2 -15 2 -3 7 2 10 11 7 17 1 20 -8 4z"/>
<path d="M11775 4129 c-4 -6 -5 -12 -2 -15 2 -3 7 2 10 11 7 17 1 20 -8 4z"/>
<path d="M11745 4101 c-3 -5 -2 -12 3 -15 5 -3 9 1 9 9 0 17 -3 19 -12 6z"/>
<path d="M13475 4069 c-4 -6 -5 -12 -2 -15 2 -3 7 2 10 11 7 17 1 20 -8 4z"/>
<path d="M11666 3847 c3 -10 9 -15 12 -12 3 3 0 11 -7 18 -10 9 -11 8 -5 -6z"/>
<path d="M11690 3826 c0 -2 8 -10 18 -17 15 -13 16 -12 3 4 -13 16 -21 21 -21
13z"/>
<path d="M11780 3731 c0 -5 5 -13 10 -16 6 -3 10 -2 10 4 0 5 -4 13 -10 16 -5
3 -10 2 -10 -4z"/>
<path d="M13010 3540 c0 -5 5 -10 11 -10 5 0 7 5 4 10 -3 6 -8 10 -11 10 -2 0
-4 -4 -4 -10z"/>
<path d="M12760 3291 c0 -6 4 -13 10 -16 6 -3 7 1 4 9 -7 18 -14 21 -14 7z"/>
<path d="M12255 3260 c-3 -5 -1 -10 4 -10 6 0 11 5 11 10 0 6 -2 10 -4 10 -3
0 -8 -4 -11 -10z"/>
<path d="M12380 3135 c7 -9 15 -13 17 -11 7 7 -7 26 -19 26 -6 0 -6 -6 2 -15z"/>
<path d="M12465 3060 c3 -5 8 -10 11 -10 2 0 4 5 4 10 0 6 -5 10 -11 10 -5 0
-7 -4 -4 -10z"/>
<path d="M5306 2568 c3 -5 10 -6 15 -3 13 9 11 12 -6 12 -8 0 -12 -4 -9 -9z"/>
</g>
</svg>
